<?xml version="1.0" encoding="UTF-8"?>
<svg width="256" height="256" version="1.1"
     xmlns="http://www.w3.org/2000/svg"
     xmlns:xlink="http://www.w3.org/1999/xlink">
  <defs>
    <linearGradient id="Gradient" x1="0" x2="0" y1="0" y2="1">
      <stop offset="0%" style="stop-color:#1867C0;stop-opacity:1" />
      <stop offset="100%" style="stop-color:#BB86FC;stop-opacity:1" />
    </linearGradient>
    <filter id="alpha-to-white">
      <feColorMatrix in="SourceGraphic" type="matrix"
                     values="0 0 0 1 0
                             0 0 0 1 0
                             0 0 0 1 0
                             0 0 0 1 0"/>
    </filter>
    <g id="child-svg"><svg xmlns="http://www.w3.org/2000/svg" height="48" width="48"><path d="M10 37.8v2.7q0 .65-.425 1.075Q9.15 42 8.5 42h-1q-.65 0-1.075-.425Q6 41.15 6 40.5V24.3l4.25-12.8q.25-.7.825-1.1.575-.4 1.325-.4h23.2q.75 0 1.325.4t.825 1.1L42 24.3v16.2q0 .65-.425 1.075Q41.15 42 40.5 42h-1.05q-.65 0-1.05-.425T38 40.5v-2.7Zm.15-16.5h27.7L35.1 13H12.9ZM9 24.3v10.5Zm5.3 8q1.15 0 1.925-.8.775-.8.775-1.9 0-1.15-.775-1.975-.775-.825-1.925-.825t-1.975.825q-.825.825-.825 1.975 0 1.15.825 1.925.825.775 1.975.775Zm19.45 0q1.15 0 1.975-.8.825-.8.825-1.9 0-1.15-.825-1.975-.825-.825-1.975-.825-1.15 0-1.925.825-.775.825-.775 1.975 0 1.15.8 1.925.8.775 1.9.775ZM9 34.8h30V24.3H9Z"/></svg></g>
  </defs>
  <rect
      width="256"
      height="256"
      fill="url(#Gradient)"
      ry="128"
      x="0"
      y="0" />
  <use xlink:href="#child-svg" filter="url(#alpha-to-white)"
       transform="matrix(2.6666666666666665,0,0,2.6666666666666665,64,64)" />
</svg>
